<?xml version="1.0" encoding="UTF-8"?><svg id="Layer_2" xmlns="http://www.w3.org/2000/svg" xmlns:xlink="http://www.w3.org/1999/xlink" viewBox="0 0 216.5 216.5"><defs><linearGradient id="linear-gradient" x1="77.19" y1="108.31" x2="139.19" y2="108.31" gradientTransform="translate(-.12 216.5) rotate(-90)" gradientUnits="userSpaceOnUse"><stop offset="0" stop-color="#666"/><stop offset="0" stop-color="#6a6a6a"/><stop offset=".08" stop-color="#909090"/><stop offset=".16" stop-color="#afafaf"/><stop offset=".24" stop-color="#c7c7c7"/><stop offset=".32" stop-color="#d8d8d8"/><stop offset=".41" stop-color="#e2e2e2"/><stop offset=".52" stop-color="#e6e6e6"/><stop offset=".58" stop-color="#dadada"/><stop offset=".69" stop-color="#bcbcbc"/><stop offset=".84" stop-color="#8b8b8b"/><stop offset="1" stop-color="#4d4d4d"/></linearGradient><linearGradient id="linear-gradient-2" y1="50.31" y2="50.31" gradientTransform="matrix(1,0,0,1,0,0)" xlink:href="#linear-gradient"/><linearGradient id="linear-gradient-3" x1="139.69" y1="-62.69" x2="211.69" y2="-62.69" gradientTransform="translate(-162 171)" xlink:href="#linear-gradient"/><linearGradient id="linear-gradient-4" x1="72.19" y1="13.81" x2="144.19" y2="13.81" gradientTransform="matrix(1,0,0,1,0,0)" xlink:href="#linear-gradient"/><linearGradient id="linear-gradient-5" x1="139.69" y1="126.31" x2="211.69" y2="126.31" gradientTransform="translate(27 -18)" xlink:href="#linear-gradient"/></defs><g id="Layer_1-2"><rect width="216.5" height="216.5" style="fill:none;"/><rect x=".19" y="77.31" width="216" height="62" style="fill:#f7931e;"/><rect x=".19" y="77.31" width="216" height="62" style="fill:url(#linear-gradient); opacity:.5;"/><path d="M139.19.31h-62v78.34c4.62,12.64,16.76,21.66,31,21.66s26.38-9.02,31-21.66V.31Z" style="fill:#f7931e;"/><path d="M139.19.31h-62v78.34c4.62,12.64,16.76,21.66,31,21.66s26.38-9.02,31-21.66V.31Z" style="fill:url(#linear-gradient-2); opacity:.5;"/><rect x="-22.31" y="94.81" width="72" height="27" transform="translate(-94.62 122) rotate(-90)" style="fill:#f7931e;"/><rect x="-22.31" y="94.81" width="72" height="27" transform="translate(-94.62 122) rotate(-90)" style="fill:url(#linear-gradient-3); opacity:.67;"/><rect x="72.19" y=".31" width="72" height="27" style="fill:#f7931e;"/><rect x="72.19" y=".31" width="72" height="27" style="fill:url(#linear-gradient-4); opacity:.67;"/><rect x="166.69" y="94.81" width="72" height="27" transform="translate(94.38 311) rotate(-90)" style="fill:#f7931e;"/><rect x="166.69" y="94.81" width="72" height="27" transform="translate(94.38 311) rotate(-90)" style="fill:url(#linear-gradient-5); opacity:.67;"/></g></svg>