<?xml version="1.0" encoding="UTF-8"?>
<svg id="Layer_2" data-name="Layer 2" xmlns="http://www.w3.org/2000/svg" xmlns:xlink="http://www.w3.org/1999/xlink" viewBox="0 0 288 288">
  <defs>
    <style>
      .cls-1 {
        fill: lime;
        opacity: 0;
      }

      .cls-2 {
        fill: #29abe2;
        opacity: .36;
        stroke: #29abe2;
      }

      .cls-2, .cls-3, .cls-4, .cls-5 {
        stroke-miterlimit: 10;
      }

      .cls-2, .cls-4 {
        stroke-width: 5.78px;
      }

      .cls-6 {
        fill: url(#radial-gradient);
      }

      .cls-7 {
        fill: #ffe5c4;
      }

      .cls-3 {
        fill: #704f2e;
        stroke-width: 3.47px;
      }

      .cls-3, .cls-5 {
        stroke: #000;
      }

      .cls-4 {
        fill: none;
        stroke: #0071bc;
      }

      .cls-5 {
        fill: #e8d0b2;
        stroke-width: 4.63px;
      }

      .cls-8 {
        fill: #ff9247;
      }

      .cls-9 {
        opacity: .44;
      }

      .cls-10 {
        fill: url(#linear-gradient);
      }

      .cls-11 {
        fill: #a37242;
      }

      .cls-12 {
        fill: #8c6239;
      }
    </style>
    <linearGradient id="linear-gradient" x1="-10.38" y1="123.38" x2="218.59" y2="123.38" gradientTransform="translate(46.02 -14.12) rotate(3.14)" gradientUnits="userSpaceOnUse">
      <stop offset="0" stop-color="#616161"/>
      <stop offset=".5" stop-color="#fff"/>
      <stop offset="1" stop-color="#757575"/>
    </linearGradient>
    <radialGradient id="radial-gradient" cx="104.4" cy="111.23" fx="104.4" fy="111.23" r="167.82" gradientTransform="translate(46.02 -14.12) rotate(3.14)" gradientUnits="userSpaceOnUse">
      <stop offset="0" stop-color="#fff"/>
      <stop offset="1" stop-color="#000"/>
    </radialGradient>
  </defs>
  <g id="logo2">
    <g id="head_grp">
      <rect class="cls-1" width="288" height="288"/>
      <path class="cls-3" d="M145.25,241.5l74.45-1.27c5.76-.1,11.38-1.76,16.27-4.81l19.05-11.88c14.09-8.79,19.05-26.94,11.37-41.67l-31.11-59.67c-5.57-10.67-16.69-17.29-28.72-17.08l-127.22,2.17c-12.04.2-22.92,7.19-28.12,18.05l-29.07,60.69c-7.17,14.98-1.61,32.95,12.78,41.25l19.45,11.22c4.99,2.88,10.67,4.35,16.43,4.25l74.45-1.27Z"/>
      <path class="cls-5" d="M226.73,136.02c.44,25.79-11.65,68.2-29.8,83.78-14.21,12.2-31.49,21.35-51.68,21.7-21.64.37-37.35-6.64-52.39-19.93-16.91-14.94-32.22-58.38-32.64-82.72-.78-45.98,35.86-83.89,81.83-84.67,45.98-.78,83.89,35.86,84.67,81.83Z"/>
      <g>
        <path class="cls-8" d="M227.58,96.83c2.52-45.92-32.66-85.18-78.57-87.71-45.92-2.52-85.18,32.66-87.71,78.57l-33.46,39.86s41.38,5.75,114.12,9.74c72.75,4,114.51,2.82,114.51,2.82l-28.89-43.28Z"/>
        <g id="helmet" class="cls-9">
          <path class="cls-10" d="M227.58,96.83l-166.28-9.13-33.46,39.86s41.38,5.75,114.12,9.74c72.75,4,114.51,2.82,114.51,2.82l-28.89-43.28Z"/>
          <path class="cls-6" d="M149.01,9.13c-45.92-2.52-85.18,32.66-87.71,78.57l20.78,1.14,9.82,10.96,103.92,5.71,10.96-9.82,20.78,1.14c2.52-45.92-32.66-85.18-78.57-87.71Z"/>
        </g>
        <path d="M144.37,9c1.54,0,3.09.04,4.64.13,45.92,2.52,81.09,41.79,78.57,87.71l28.89,43.28s-5.76.16-16.73.16c-18.57,0-52.05-.47-97.78-2.98-72.75-4-114.12-9.74-114.12-9.74l33.46-39.86c2.44-44.36,39.17-78.7,83.06-78.7M144.37,5.53c-45.61,0-83.36,35.4-86.46,80.81l-32.73,38.98-4.03,4.8,6.21.86c.42.06,42.36,5.81,114.41,9.77,44.89,2.47,78.05,2.98,97.97,2.98,10.9,0,16.77-.16,16.83-.16l6.27-.18-3.48-5.22-28.26-42.33c1.97-47.25-34.54-87.59-81.9-90.19-1.6-.09-3.23-.13-4.83-.13h0Z"/>
      </g>
      <path class="cls-2" d="M65.87,128.35l154.86-2.64c3.21-.05,5.86,2.51,5.92,5.72l.54,31.61c.04,2.5-1.52,4.76-3.88,5.59l-26.2,9.23c-.59.21-1.21.32-1.84.33l-37.09.63c-2.2.04-4.24-1.17-5.26-3.13l-3.72-7.13c-2.22-4.25-8.34-4.15-10.41.18l-3.47,7.25c-.95,1.99-2.95,3.27-5.15,3.31l-37.09.63c-.63.01-1.25-.08-1.85-.27l-26.49-8.33c-2.39-.75-4.03-2.95-4.07-5.45l-.54-31.61c-.05-3.21,2.51-5.86,5.72-5.92Z"/>
      <g>
        <path d="M136.6,132.24c2.4,7.63-10.67,8.67-16.8,8.87-9.3,0-18.49-1.71-27.77-1.15-3.65.29-7.4.53-10.3,2.46-.92.64-1.66,1.55-2.12,2.71-.47-1.12-.5-2.52.14-3.78,3.23-5.9,12.99-7.58,19.92-7.85,6.96-.16,13.92,1.08,20.7,2.1,1.16.2,2.62.32,3.76.39,4.86.25,11.19,1.32,12.47-3.75h0Z"/>
        <path d="M92.82,153.83c4.73-4.41,13.26-6.41,20.94-6.33,5.76-.04,10.98,1.03,16.38,1.72,1.77.19,3.42.27,5.14-.3-.87,1.3-3.04,2.02-4.98,2.35-5.51.88-11.3.36-16.63.41-7.16-.11-13.95.71-20.85,2.15h0Z"/>
        <path d="M129.88,148.58c.33,4.1,1.68,8.29.76,12.41-.63,3.17-2.94,6.31-6.01,7.79-4.64,2.8-10.55,3.85-15.71,1.88-4.05-1.33-7.01-4.25-10.55-6.33,2.05.31,3.92,1.27,5.77,1.99,5.19,2.37,11.04,3.17,16.28.71,1.64-.72,3.33-1.61,4.77-2.67,1.44-1.12,2.64-2.96,3.49-4.81.95-3.52.46-7.36,1.2-10.95h0Z"/>
      </g>
      <g>
        <path d="M149.51,131.61c-2.14,7.71,10.96,8.3,17.1,8.3,9.3-.31,18.42-2.34,27.71-2.09,3.66.16,7.42.28,10.38,2.11.94.61,1.71,1.49,2.21,2.63.44-1.14.42-2.54-.27-3.78-3.43-5.79-13.24-7.13-20.18-7.16-6.96.07-13.88,1.56-20.62,2.81-1.15.24-2.6.41-3.74.52-4.84.42-11.14,1.7-12.59-3.33h0Z"/>
        <path d="M199.96,154.59c-5.75-6.06-15.87-8.53-24.91-8.08-6.77.2-12.86,1.96-19.18,3.17-2.07.35-4.01.53-6.06-.19,1.08,1.81,3.66,2.73,5.96,3.12,6.51,1.01,13.31.02,19.58-.15,8.41-.47,16.43.4,24.61,2.13h0Z"/>
        <path d="M171.67,172.95c-5.93-1.88-8.88-4.32-10.35-9.12-1.29-3.82-.66-11.5-.66-11.5l-6.11-.45s-.8,8.75.65,13.41c1.84,6.12,9.09,10.45,16.46,7.65h0Z"/>
      </g>
      <g>
        <path class="cls-12" d="M145.31,272.2c-3.57,0-7.06-.69-10.37-2.04l-47.51-19.41c-10.17-4.15-16.86-13.93-17.04-24.91l-.67-39.29,23.51,22.72,51.29-11.17,51.64,9.42,22.72-23.51.67,39.29c.19,10.98-6.17,20.98-16.19,25.48l-46.82,21.02c-3.55,1.6-7.33,2.4-11.23,2.4Z"/>
        <path d="M217.21,188.23l.6,35.1c.17,10.27-5.79,19.66-15.16,23.87l-46.82,21.02c-3.34,1.5-6.93,2.25-10.52,2.25-3.3,0-6.6-.63-9.71-1.91l-47.51-19.41c-9.51-3.89-15.79-13.07-15.97-23.34l-.6-35.1,21.17,20.46,51.86-11.29,52.21,9.52,20.46-21.17M220.54,179.8l-5.82,6.02-19.17,19.83-50.38-9.19-.68-.12-.68.15-50.04,10.9-19.83-19.17-6.02-5.82.14,8.37.6,35.1c.2,11.68,7.31,22.07,18.12,26.49l47.51,19.41c3.52,1.44,7.23,2.17,11.03,2.17,4.14,0,8.16-.86,11.94-2.56l46.82-21.02c10.65-4.78,17.41-15.42,17.21-27.09l-.6-35.1-.14-8.37h0Z"/>
      </g>
      <path class="cls-4" d="M65.87,128.35l154.86-2.64c3.21-.05,5.86,2.51,5.92,5.72l.54,31.61c.04,2.5-1.52,4.76-3.88,5.59l-26.2,9.23c-.59.21-1.21.32-1.84.33l-37.09.63c-2.2.04-4.24-1.17-5.26-3.13l-3.72-7.13c-2.22-4.25-8.34-4.15-10.41.18l-3.47,7.25c-.95,1.99-2.95,3.27-5.15,3.31l-37.09.63c-.63.01-1.25-.08-1.85-.27l-26.49-8.33c-2.39-.75-4.03-2.95-4.07-5.45l-.54-31.61c-.05-3.21,2.51-5.86,5.72-5.92Z"/>
      <g>
        <path class="cls-11" d="M89.78,213.11c7.28-15.2,25.51-24.6,38.22-24.6,5.27,0,9.49,1.58,12.19,4.56,4.94,5.45,4.59,9.81,3.42,12.5-2.5,5.77-11.27,9.33-23.47,9.54l-31.57.54,1.21-2.53Z"/>
        <path d="M128,190.24c4.54,0,8.43,1.25,10.91,3.99,9.28,10.24.38,18.81-18.8,19.14-13.56.23-9.59.16-28.77.49,6.79-14.18,24.19-23.62,36.66-23.62M128,186.77c-13.24,0-32.22,9.78-39.79,25.59l-2.42,5.06,5.61-.1,18.57-.32,10.19-.17c13.09-.22,22.22-4.08,25.04-10.58,1.12-2.59,2.13-7.9-3.73-14.35-3.04-3.35-7.7-5.13-13.48-5.13h0Z"/>
      </g>
      <g>
        <path class="cls-11" d="M168.21,214.28c-11.83,0-20.1-3.21-22.7-8.81-1.22-2.64-1.69-6.96,3.02-12.54,2.76-3.26,7.24-4.99,12.96-4.99,12.76,0,30.51,8.72,38.11,23.3l1.3,2.49-31.57.54c-.38,0-.75,0-1.12,0Z"/>
        <path d="M161.49,189.67c12.4,0,29.47,8.75,36.57,22.37-19.18.33-15.21.26-28.77.49-.37,0-.73,0-1.09,0-18.43,0-27.11-8.15-18.35-18.5,2.53-2.99,6.72-4.37,11.63-4.37M161.5,186.2v3.47-3.47h0c-6.24,0-11.18,1.94-14.28,5.6-5.59,6.61-4.45,11.85-3.27,14.39,2.89,6.24,11.74,9.82,24.27,9.82.38,0,.76,0,1.15,0l11.43-.19,17.34-.3,5.61-.1-2.6-4.98c-7.91-15.17-26.37-24.23-39.65-24.23h0Z"/>
      </g>
      <g>
        <path class="cls-7" d="M140.14,160.21c-3.09,2.08-5.18,6.66-5.09,11.94,0,.23.01.46.03.69.07,1.31-.39,2.61-1.32,3.6,0,0-.02.02-.03.03-.72.77-1.65,1.31-2.68,1.66-3.15,1.06-5.38,3.86-5.33,7.15.06,3.28,2.37,6,5.54,6.96,1.02.31,1.96.8,2.68,1.53,2.6,2.64,6.35,4.27,10.5,4.2s7.85-1.83,10.36-4.55c.7-.76,1.62-1.28,2.63-1.62,3.14-1.06,5.36-3.86,5.3-7.14-.06-3.29-2.38-6.01-5.57-6.96-1.04-.31-1.99-.82-2.74-1.57,0,0-.02-.02-.03-.03-.96-.96-1.47-2.24-1.44-3.56,0-.23,0-.46,0-.69-.09-5.49-2.53-10.14-5.88-11.99"/>
        <path d="M140.14,160.21c-3.42,3.06-4.38,7.91-3.95,12.25.5,2.85-1.45,5.75-4.01,6.85-4.81,1.51-6.36,7.35-1.88,10.18.99.62,1.65.6,2.95,1.17,2.11.92,3.41,3,5.68,3.86,4.41,2.04,10.04,1.28,13.63-2.03.96-.99,2.09-2,3.37-2.47.3-.11.64-.25.94-.35,4.29-1.3,5.36-6.95,1.59-9.58-.85-.66-1.9-.92-2.87-1.4-2.24-1.07-3.98-3.52-3.8-6.09.21-2.46-.03-4.95-.86-7.32-.73-2.08-1.94-4.07-3.83-5.44,2.16.91,3.86,2.81,5,4.91,1.16,2.12,1.79,4.52,2.01,6.96-.08,2.94,1.68,4.08,4.32,4.7,8.82,3.28,8.04,14.8-.74,17.62-.57.27-.97.57-1.35,1.01-4.77,5.27-12.98,6.68-19.34,3.6-1.5-.73-2.91-1.69-4.12-2.84-.9-1-1.48-1.28-2.94-1.77-8.62-3.48-7.91-15.19,1.08-17.51,1.49-.5,2.7-1.65,2.89-3.23.06-4.92,1.74-10.58,6.25-13.1h0Z"/>
      </g>
    </g>
  </g>
</svg>