<?xml version="1.0" encoding="UTF-8"?>
<svg id="Layer_2" data-name="Layer 2" xmlns="http://www.w3.org/2000/svg" viewBox="0 0 531 99">
  <defs>
    <style>
      .cls-1 {
        fill: #4545ff;
      }

      .cls-2 {
        fill: #fff;
      }

      .cls-3 {
        fill: none;
      }

      .cls-4 {
        fill: red;
      }
    </style>
  </defs>
  <g id="banner">
    <g>
      <rect class="cls-3" width="531" height="99"/>
      <g>
        <circle class="cls-2" cx="49.54" cy="49.54" r="40.54"/>
        <path class="cls-1" d="M63.06,63.06c0,7.46-6.05,13.51-13.51,13.51s-13.51-6.05-13.51-13.51,6.76-16.89,13.51-40.54c6.76,23.65,13.51,33.08,13.51,40.54Z"/>
      </g>
      <g>
        <path class="cls-4" d="M151.57,34.96c0,5.78-2.32,11.69-5.78,14.7-3.64,3.14-7.26,4.84-15.94,4.84h-4.55c-.37,0-.68.3-.68.68v16.03c0,.37-.3.68-.67.68h-12.87c-.37,0-.67-.3-.67-.68V16.69c0-.37.3-.68.67-.68h17.24c9.97,0,13.82,1.56,16.81,4.09,4.1,3.47,6.45,8.88,6.45,14.85ZM137.93,35.18c0-2.73-1.08-4.53-3.32-5.5-1.87-.81-4.14-.81-5.64-.81h-3.67c-.37,0-.68.3-.68.68v11.41c0,.37.3.68.68.68h4.19c1.3,0,3.48,0,5.28-.81,2.62-1.18,3.17-3.72,3.17-5.65Z"/>
        <path class="cls-4" d="M168.37,16.55v8.63c0,.37-.3.68-.68.68h-11.82c-.37,0-.67-.3-.67-.68v-8.63c0-.37.3-.68.67-.68h11.82c.37,0,.68.3.68.68ZM168.37,29.87v40.94c0,.37-.3.68-.68.68h-11.82c-.37,0-.67-.3-.67-.68V29.87c0-.37.3-.68.67-.68h11.82c.37,0,.68.3.68.68Z"/>
        <path class="cls-4" d="M220.55,50.67c0,12.21-10.07,22.14-22.46,22.14-3.93,0-7.75-1.01-11.14-2.92-.23-.13-.51.03-.51.29v14.61c0,.37-.3.68-.68.68h-11.82c-.37,0-.67-.3-.67-.68V29.86c0-.37.3-.68.67-.68h11.82c.37,0,.68.3.68.68v1.29c0,.26.28.42.51.29,3.39-1.92,7.22-2.92,11.14-2.92,12.38,0,22.46,9.93,22.46,22.14ZM206.37,50.67c0-5.6-4.62-10.16-10.3-10.16s-9.62,4.56-9.62,10.16,3.94,10.16,9.62,10.16,10.3-4.56,10.3-10.16Z"/>
        <path class="cls-4" d="M267.95,50.67c0,1.22-.15,2.66-.36,3.93-.06.33-.34.56-.67.56h-29.62c-.53,0-.85.57-.58,1.02,1.82,3.09,5.08,5.01,8.68,5.01,3.06,0,5.92-1.35,7.95-3.95.16-.2.41-.3.66-.26l11.34,2.04c.44.08.68.55.49.96-.25.53-.58,1.19-.76,1.52h0s-.19.31-.19.31c-.17.29-.35.58-.56.9-.26.4-.51.75-.75,1.07l-.14.19h-.01c-.08.1-.16.21-.24.31l-.12.16c-.16.2-.31.38-.46.55l-.13.15c-.25.29-.5.55-.77.83l-.15.16c-.18.18-.36.35-.54.53l-.05.05c-.2.19-.4.37-.61.55l-.22.19-.26-.22.22.25c-.32.27-.62.51-.91.73l-.25.19c-.35.26-.71.5-1.07.74l-.1.07c-.42.27-.84.52-1.26.76l-.12.07c-.1.06-.2.11-.31.16l-.07.04c-.2.1-.37.19-.55.28l-.1.05c-.4.19-.78.36-1.15.52l-.08.03c-.25.1-.48.19-.71.27l-.27.1c-.28.1-.55.19-.84.28l-.05.02c-.3.09-.62.18-.98.28l-.26.07c-.65.16-1.29.29-1.93.39l-.24.04c-.68.1-1.36.17-2.03.2h-.25c-.4.03-.73.04-1.04.04s-.65,0-1.04-.03c-.08,0-.15,0-.23-.01h-.08c-.25-.02-.51-.04-.76-.06h-.08c-.08-.01-.15-.02-.22-.03-.37-.04-.69-.08-.99-.12h0s0,0-.01,0l-.18-.03c-.27-.04-.55-.09-.82-.15l-.29-.06c-.24-.05-.48-.11-.72-.16l-.08-.02c-.07-.02-.14-.03-.21-.05-.36-.09-.67-.18-.96-.27-.32-.1-.63-.2-.94-.31-.07-.03-.15-.05-.22-.08l-.06-.02c-.23-.08-.45-.17-.68-.26l-.06-.02c-.07-.03-.14-.06-.21-.09-.3-.13-.6-.26-.89-.4l-.03-.02c-.27-.12-.56-.27-.84-.42-.07-.04-.13-.07-.2-.11l-.05-.03c-.21-.11-.42-.23-.62-.35l-.25-.15c-.28-.17-.55-.34-.82-.52-2.68-1.78-4.98-4.16-6.65-6.88-.14-.23-.28-.46-.41-.69l-.06-.11c-.13-.23-.25-.45-.36-.68l-.07-.13c-.04-.07-.07-.14-.11-.21-.42-.86-.8-1.78-1.12-2.73-.18-.53-.31-.97-.42-1.4-.09-.35-.17-.71-.25-1.07-.23-1.09-.37-2.21-.43-3.32-.02-.38-.03-.76-.03-1.14s0-.76.03-1.14c.1-1.96.47-3.91,1.1-5.79.21-.62.41-1.17.64-1.69.13-.3.26-.59.4-.88.03-.07.07-.14.1-.21l.08-.17c.03-.07.07-.14.1-.2.04-.07.07-.14.11-.21l.2-.36c.16-.28.32-.56.49-.83,1.68-2.72,3.98-5.1,6.65-6.88.27-.18.54-.35.82-.52l.25-.15c.21-.12.42-.24.63-.35l.05-.03c.07-.04.13-.07.2-.11.29-.15.57-.3.87-.44.3-.14.6-.27.9-.4.07-.03.14-.06.21-.09l.06-.03c.22-.09.45-.18.68-.26l.07-.02c.07-.03.14-.05.21-.08.31-.11.62-.22.94-.31.32-.1.64-.19.96-.27.07-.02.14-.04.21-.05l.08-.02c.24-.06.48-.11.72-.17l.17-.04c.29-.06.77-.15,1.07-.19h.05s0,0,.01-.01h0c.3-.05.62-.09.99-.12.07,0,.15-.01.22-.02h.08c.25-.03.51-.05.76-.06h.06c.08,0,.16-.01.25-.02.39-.02.73-.03,1.04-.03s.64,0,1.03.03h.25c.68.05,1.36.12,2.01.21l.27.04c.64.1,1.29.23,1.91.39l.28.07c.36.09.67.18.96.27l.05.02c.29.09.57.19.84.28.08.03.17.06.25.09.25.09.48.18.7.27l.11.04c.36.15.75.32,1.14.51l.1.05c.19.09.37.18.54.27l.06.03-.14.3.17-.29c.11.06.21.11.31.17.38.21,1,.58,1.37.81l.05.03c.39.25.76.51,1.12.77l.06.04c.07.05.15.11.22.16.31.23.6.47.92.74l.18.15c.24.2.47.41.69.62l.06.06c.18.17.36.35.54.52l.14.14c.28.29.54.56.77.83l-.22.26.25-.22.12.14c.15.18.3.35.45.54l.14.17c.17.22.34.44.5.66l.02.03c.13.18.26.36.39.55l.24.37c.11.16.21.33.31.49l.42.69h0c.84,1.47,1.5,3.01,1.97,4.6.61,2.04.91,4.14.92,6.25ZM254.72,45.05c-.53-3.12-4.13-5.55-8.72-5.55-4.17,0-8.12,2.41-8.71,5.53-.08.42.24.8.67.8h16.09c.42,0,.74-.38.67-.79Z"/>
        <path class="cls-1" d="M325.88,44.06c0,5.38-1.5,10.61-4.34,15.12-2.76,4.39-6.65,7.9-11.25,10.15-2.97,1.45-5.53,2.7-13.9,2.7h-16.7c-.38,0-.69-.31-.69-.69V16.79c0-.39.31-.7.7-.7h16.27c7.23,0,10.69,1.08,13.34,2.25,10.07,4.43,16.57,14.53,16.57,25.72ZM311.82,44.03c-.1-14.54-15.08-15.1-18.52-15.03-.39,0-.7.32-.7.71v28.59c0,.4.33.72.73.72h.75c5.94,0,11.25-1.67,13.87-4.35,2.53-2.59,3.87-6.27,3.87-10.64Z"/>
        <path class="cls-1" d="M353.15,29.9l-.4,9.89c-.02.39-.35.68-.73.65-1.16-.11-3.47-.26-4.83.07-1.52.37-2.4,1.54-2.65,2.11-.68,1.46-.68,2.76-.68,4.4v23.8c0,.37-.3.68-.68.68h-12.61c-.37,0-.67-.3-.67-.68V29.87c0-.37.3-.68.67-.68h11.82c.37,0,.68.3.68.68v1.18c0,.26.29.43.51.29,2.8-1.74,6.12-2.1,8.91-2.14.39,0,.7.32.68.7Z"/>
        <path class="cls-1" d="M397.67,50.67c0,1.22-.15,2.66-.36,3.93-.06.33-.34.56-.67.56h-29.62c-.53,0-.85.57-.58,1.02,1.82,3.09,5.08,5.01,8.68,5.01,3.06,0,5.92-1.35,7.95-3.95.16-.2.41-.3.66-.26l11.34,2.04c.44.08.68.55.49.96-.25.53-.58,1.19-.76,1.52h0s-.19.31-.19.31c-.17.29-.35.58-.56.9-.26.4-.51.75-.75,1.07l-.14.19h-.01c-.08.1-.16.21-.24.31l-.12.16c-.16.2-.31.38-.46.55l-.13.15c-.25.29-.5.55-.77.83l-.15.16c-.18.18-.36.35-.54.53l-.05.05c-.2.19-.4.37-.61.55l-.22.19-.26-.22.22.25c-.32.27-.62.51-.91.73l-.25.19c-.35.26-.71.5-1.07.74l-.1.07c-.42.27-.84.52-1.26.76l-.12.07c-.1.06-.2.11-.31.16l-.07.04c-.2.1-.37.19-.55.28l-.1.05c-.4.19-.78.36-1.15.52l-.08.03c-.25.1-.48.19-.71.27l-.27.1c-.28.1-.55.19-.84.28l-.05.02c-.3.09-.62.18-.98.28l-.26.07c-.65.16-1.29.29-1.93.39l-.24.04c-.68.1-1.36.17-2.03.2h-.25c-.4.03-.73.04-1.04.04s-.65,0-1.04-.03c-.08,0-.15,0-.23-.01h-.08c-.25-.02-.51-.04-.76-.06h-.08c-.08-.01-.15-.02-.22-.03-.37-.04-.69-.08-.99-.12h0s0,0-.01,0l-.18-.03c-.27-.04-.55-.09-.82-.15l-.29-.06c-.24-.05-.48-.11-.72-.16l-.08-.02c-.07-.02-.14-.03-.21-.05-.36-.09-.67-.18-.96-.27-.32-.1-.63-.2-.94-.31-.07-.03-.15-.05-.22-.08l-.06-.02c-.23-.08-.45-.17-.68-.26l-.06-.02c-.07-.03-.14-.06-.21-.09-.3-.13-.6-.26-.89-.4l-.03-.02c-.27-.12-.56-.27-.84-.42-.07-.04-.13-.07-.2-.11l-.05-.03c-.21-.11-.42-.23-.62-.35l-.25-.15c-.28-.17-.55-.34-.82-.52-2.68-1.78-4.98-4.16-6.65-6.88-.14-.23-.28-.46-.41-.69l-.06-.11c-.13-.23-.25-.45-.36-.68l-.07-.13c-.04-.07-.07-.14-.11-.21-.42-.86-.8-1.78-1.12-2.73-.18-.53-.31-.97-.42-1.4-.09-.35-.17-.71-.25-1.07-.23-1.09-.37-2.21-.43-3.32-.02-.38-.03-.76-.03-1.14s0-.76.03-1.14c.1-1.96.47-3.91,1.1-5.79.21-.62.42-1.17.64-1.69.13-.3.26-.59.4-.88.03-.07.07-.14.1-.21l.08-.17c.03-.07.07-.14.1-.2.04-.07.07-.14.11-.21l.2-.36c.16-.28.32-.56.49-.83,1.68-2.72,3.98-5.1,6.65-6.88.27-.18.54-.35.82-.52l.25-.15c.21-.12.42-.24.63-.35l.05-.03c.07-.04.13-.07.2-.11.29-.15.57-.3.87-.44.3-.14.6-.27.9-.4.07-.03.14-.06.21-.09l.06-.03c.22-.09.45-.18.68-.26l.07-.02c.07-.03.14-.05.21-.08.31-.11.62-.22.94-.31.32-.1.64-.19.96-.27.07-.02.14-.04.21-.05l.08-.02c.24-.06.48-.11.72-.17l.17-.04c.29-.06.77-.15,1.07-.19h.05s0,0,.01-.01h0c.3-.05.62-.09.99-.12.07,0,.15-.01.22-.02h.08c.25-.03.51-.05.76-.06h.06c.08,0,.16-.01.25-.02.39-.02.73-.03,1.04-.03s.64,0,1.03.03h.25c.68.05,1.36.12,2.01.21l.27.04c.64.1,1.29.23,1.91.39l.28.07c.36.09.67.18.96.27l.05.02c.29.09.57.19.84.28.08.03.17.06.25.09.25.09.48.18.7.27l.11.04c.36.15.75.32,1.14.51l.1.05c.19.09.37.18.54.27l.06.03-.14.3.17-.29c.11.06.21.11.31.17.38.21,1,.58,1.37.81l.05.03c.39.25.76.51,1.12.77l.06.04c.07.05.15.11.22.16.31.23.6.47.92.74l.18.15c.24.2.47.41.69.62l.06.06c.18.17.36.35.54.52l.14.14c.28.29.54.56.77.83l-.22.26.25-.22.12.14c.15.18.3.35.45.54l.14.17c.17.22.34.44.5.66l.02.03c.13.18.26.36.39.55l.24.37c.11.16.21.33.31.49l.42.69h0c.84,1.47,1.5,3.01,1.97,4.6.61,2.04.91,4.14.92,6.25ZM384.44,45.05c-.53-3.12-4.13-5.55-8.72-5.55-4.17,0-8.12,2.41-8.71,5.53-.08.42.24.8.67.8h16.09c.42,0,.74-.38.67-.79Z"/>
        <path class="cls-1" d="M447.39,29.85v40.94c0,.37-.3.68-.68.68h-11.82c-.37,0-.67-.3-.67-.68v-.62c0-.26-.28-.42-.51-.29-3.39,1.92-7.21,2.92-11.14,2.92-12.38,0-22.45-9.93-22.45-22.14s10.07-22.14,22.45-22.14c3.93,0,7.75,1.01,11.14,2.92.23.13.51-.03.51-.29v-1.29c0-.37.3-.68.67-.68h11.82c.37,0,.68.3.68.68ZM434.22,50.65c0-5.6-3.94-10.16-9.62-10.16s-10.3,4.56-10.3,10.16,4.62,10.16,10.3,10.16,9.62-4.56,9.62-10.16Z"/>
        <path class="cls-1" d="M515.17,47.01v23.8c0,.37-.3.68-.68.68h-12.61c-.37,0-.67-.3-.67-.68v-23.13c0-1.57-.09-3.37-.75-4.82-.3-.62-.7-1.12-1.19-1.5-.79-.62-1.81-.92-3.12-.92-2.43,0-4.32.84-4.92,2.18-.68,1.46-.68,3.46-.68,5.06v23.13c0,.37-.3.68-.67.68h-12.28c-.37,0-.67-.3-.68-.67l-.03-23.13c0-1.57-.09-3.37-.75-4.82-.3-.62-.7-1.12-1.19-1.5-.79-.62-1.81-.92-3.12-.92-2.43,0-4.32.84-4.92,2.18-.68,1.46-.68,3.46-.68,5.06v23.13c0,.37-.3.68-.68.68h-12.61c-.37,0-.67-.3-.67-.68V29.87c0-.37.3-.68.67-.68h11.82c.37,0,.67.3.67.68v1.14c0,.27.3.43.53.28,9.53-6.56,18.8.72,18.89.8.34.26.66.55.95.84.26.26.5.51.73.77.28.31.76.29,1.03-.03.71-.87,1.58-1.68,2.58-2.39,1.29-.92,2.69-1.6,4.04-1.97,7.98-2.72,14.9,2.74,14.97,2.79.34.26.66.55.95.84h0c4.31,4.34,5.04,7.85,5.04,14.08Z"/>
      </g>
    </g>
  </g>
</svg>