<?xml version="1.0" encoding="UTF-8"?>
<svg id="b" data-name="Layer 2" xmlns="http://www.w3.org/2000/svg" width="300" height="50" viewBox="0 0 300 50">
  <g id="c" data-name="Layer 1">
    <g>
      <g>
        <g>
          <g>
            <path d="M67.34,39.32c-.66,0-1.25-.25-1.72-.71-.46-.46-.7-1.05-.7-1.68v-2.31c0-.63.24-1.21.71-1.68.44-.45,1-.69,1.63-.71V13.04c-.63-.02-1.2-.28-1.64-.74-.45-.47-.69-1.05-.69-1.68v-2.29c0-.63.24-1.21.71-1.68.46-.46,1.06-.71,1.71-.71h11.94c1.38,0,2.65.26,3.76.79,1.12.52,2.09,1.28,2.87,2.26.76.95,1.35,2.12,1.76,3.48.39,1.33.59,2.82.59,4.44,0,1.89-.21,3.52-.64,4.87-.44,1.39-1.09,2.55-1.95,3.45-.86.91-1.93,1.58-3.17,2-1.19.4-2.54.61-4.02.61h-2.68v4.4h.7c.66,0,1.25.25,1.72.71.46.47.71,1.05.71,1.68v2.31c0,.63-.24,1.22-.71,1.68-.46.47-1.06.71-1.72.71h-9.17ZM76.51,20.72c.64,0,1.18-.07,1.58-.22.33-.12.59-.3.79-.56.22-.28.38-.69.48-1.2.12-.61.18-1.37.18-2.28,0-1.73-.35-2.46-.65-2.77-.42-.44-1.13-.66-2.1-.66h-.98v7.68h.7Z" fill="#f33"/>
            <path d="M79.28,6.94c1.24,0,2.35.23,3.34.69.99.46,1.82,1.12,2.51,1.98.68.86,1.21,1.9,1.58,3.14.37,1.24.55,2.62.55,4.15,0,1.79-.2,3.31-.59,4.57-.4,1.25-.97,2.27-1.72,3.06-.75.79-1.67,1.37-2.77,1.74-1.09.37-2.33.55-3.7.55h-1.98v-5.1c.76,0,1.4-.09,1.92-.28.51-.18.93-.48,1.25-.89.32-.41.54-.95.67-1.62.13-.67.2-1.5.2-2.47,0-1.66-.31-2.81-.93-3.46-.62-.65-1.56-.97-2.83-.97h-.28v-5.1h2.77M74.81,6.94v26.29h1.7c.4,0,.73.14,1.01.42.28.28.41.6.41.98v2.31c0,.37-.14.7-.41.98-.28.28-.61.42-1.01.42h-9.17c-.4,0-.73-.14-1.01-.42-.28-.28-.42-.6-.42-.98v-2.31c0-.37.14-.7.42-.98.28-.28.61-.42,1.01-.42h.91V12.04h-.91c-.4,0-.73-.14-1.01-.43-.28-.29-.42-.62-.42-.99v-2.29c0-.37.14-.69.42-.97.28-.28.61-.42,1.01-.42h7.47M79.28,4.94h-11.94c-.93,0-1.77.35-2.42,1-.65.65-1,1.48-1,2.38v2.29c0,.89.34,1.71.97,2.37.39.41.85.71,1.36.88v17.53c-.5.16-.95.45-1.34.84-.65.66-1,1.48-1,2.39v2.31c0,.9.34,1.73.99,2.38.65.66,1.49,1.01,2.43,1.01h9.17c.93,0,1.77-.35,2.43-1.01.65-.66.99-1.48.99-2.38v-2.31c0-.9-.34-1.73-.99-2.38-.59-.59-1.32-.93-2.13-1v-2.42h1.68c1.58,0,3.04-.22,4.34-.66,1.4-.47,2.6-1.23,3.58-2.26.96-1.01,1.69-2.3,2.18-3.84.45-1.44.69-3.18.69-5.17,0-1.71-.21-3.3-.64-4.72-.44-1.48-1.09-2.77-1.94-3.82-.88-1.1-1.96-1.95-3.23-2.54-1.25-.58-2.66-.88-4.19-.88h0ZM76.81,19.72v-5.68c.66,0,1.14.13,1.36.35,0,0,.37.41.37,2.07,0,.84-.05,1.54-.16,2.09-.09.47-.22.69-.29.78-.06.08-.14.16-.34.23-.17.06-.46.13-.94.15h0Z" fill="#fff"/>
          </g>
          <g>
            <path d="M90.66,39.32c-.63,0-1.2-.23-1.64-.67-.44-.44-.67-1-.67-1.63v-2.21c0-.63.23-1.2.67-1.64.36-.36.81-.58,1.31-.65v-12.31c-.5-.07-.95-.29-1.31-.65-.44-.44-.67-1-.67-1.64v-2.21c0-.63.23-1.2.67-1.64.44-.44,1-.67,1.64-.67h8.23v19.15c.42.09.8.3,1.11.61.44.44.67,1.01.67,1.64v2.21c0,.63-.23,1.2-.67,1.64s-1,.67-1.64.67h-7.71ZM92.64,13.08c-.63,0-1.2-.23-1.64-.67-.44-.43-.67-1-.67-1.64v-4.15c0-.63.23-1.2.67-1.64.44-.44,1-.67,1.64-.67h3.95c.63,0,1.2.23,1.63.67.44.44.67,1.01.67,1.64v4.15c0,.63-.23,1.2-.67,1.64-.44.44-1,.67-1.64.67h-3.95Z" fill="#f33"/>
            <path d="M96.59,5.32c.37,0,.68.13.93.38.25.25.38.56.38.93v4.15c0,.37-.13.68-.38.93-.25.25-.56.38-.93.38h-3.95c-.37,0-.68-.12-.93-.38-.25-.25-.38-.56-.38-.93v-4.15c0-.37.12-.68.38-.93.25-.25.56-.38.93-.38h3.95M97.89,14.41v19.09h.47c.37,0,.68.13.93.38.25.25.38.56.38.93v2.21c0,.37-.13.68-.38.93-.25.25-.56.38-.93.38h-7.71c-.37,0-.68-.12-.93-.38-.25-.25-.38-.56-.38-.93v-2.21c0-.37.12-.68.38-.93.25-.25.56-.38.93-.38h.67v-14.27h-.67c-.37,0-.68-.12-.93-.38-.25-.25-.38-.56-.38-.93v-2.21c0-.37.12-.68.38-.93.25-.25.56-.38.93-.38h7.23M96.59,3.32h-3.95c-.9,0-1.71.33-2.34.96-.63.63-.96,1.44-.96,2.34v4.15c0,.64.16,1.23.48,1.74-.56.14-1.07.43-1.5.86-.63.63-.96,1.44-.96,2.34v2.21c0,.91.33,1.72.96,2.34.3.3.64.53,1.01.69v10.8c-.37.16-.71.39-1.02.69-.63.63-.96,1.44-.96,2.34v2.21c0,.91.33,1.72.96,2.34.63.63,1.44.96,2.34.96h7.71c.9,0,1.71-.33,2.34-.96.63-.63.96-1.44.96-2.34v-2.21c0-.9-.33-1.71-.96-2.34-.25-.25-.52-.45-.82-.6V12.41h-.42c.28-.49.42-1.04.42-1.64v-4.15c0-.9-.33-1.71-.96-2.34-.63-.63-1.44-.96-2.35-.96h0Z" fill="#fff"/>
          </g>
          <g>
            <path d="M102.48,46.44c-.66,0-1.25-.24-1.71-.71-.46-.46-.71-1.06-.71-1.72v-1.98c0-.66.24-1.25.71-1.71.36-.36.79-.58,1.27-.67v-19.46c-.48-.09-.91-.31-1.27-.67-.46-.46-.71-1.06-.71-1.71v-1.98c0-.66.24-1.25.71-1.71.46-.46,1.06-.71,1.71-.71h8.11v1.23c1.19-1.29,2.71-1.94,4.53-1.94,1.71,0,3.16.42,4.3,1.26,1.1.8,1.99,1.88,2.64,3.19.62,1.26,1.06,2.72,1.3,4.33.23,1.56.35,3.17.35,4.79s-.12,3.32-.35,4.89c-.24,1.62-.67,3.09-1.3,4.37-.65,1.33-1.53,2.41-2.63,3.23-1.15.85-2.61,1.28-4.35,1.28s-3.27-.58-4.48-1.74h-.01s0,1.32,0,1.32c.64.01,1.21.25,1.66.71.46.47.71,1.06.71,1.72v1.98c0,.66-.24,1.25-.71,1.71-.46.46-1.06.71-1.72.71h-8.06ZM111.95,32.59c.13.12.27.21.42.27.11.05.25.07.43.07.43,0,.74-.1.96-.3.28-.26.51-.66.68-1.18.2-.61.34-1.34.41-2.17.08-.88.11-1.85.11-2.9,0-1.1-.04-2.12-.12-3.02-.07-.85-.21-1.58-.41-2.18-.17-.5-.39-.87-.66-1.1-.22-.19-.54-.29-.98-.29-.34,0-.6.1-.84.31l-1.36,1.19v10.11l1.36,1.19Z" fill="#f33"/>
            <path d="M115.13,13.7c1.5,0,2.74.36,3.72,1.07.97.71,1.75,1.65,2.33,2.83.58,1.17.98,2.52,1.21,4.03.22,1.52.34,3.06.34,4.64s-.11,3.22-.34,4.74c-.22,1.53-.63,2.89-1.21,4.07-.58,1.19-1.36,2.14-2.33,2.87-.98.72-2.23,1.09-3.76,1.09s-2.77-.49-3.79-1.46v-4.23c.21.18.43.33.67.43.24.11.51.16.83.16.69,0,1.23-.19,1.64-.57.41-.38.72-.92.95-1.6.22-.68.38-1.48.45-2.39.08-.91.12-1.9.12-2.98s-.04-2.17-.12-3.1c-.08-.94-.23-1.74-.45-2.41-.22-.67-.54-1.19-.95-1.54-.41-.36-.96-.53-1.64-.53-.58,0-1.08.18-1.5.55v-3.99c1-1.11,2.28-1.66,3.83-1.66M109.59,14.41v26.21h.95c.4,0,.73.14,1.01.41.28.28.41.61.41,1.01v1.98c0,.4-.14.73-.41,1.01-.28.28-.61.41-1.01.41h-8.06c-.4,0-.73-.14-1.01-.41-.28-.28-.42-.61-.42-1.01v-1.98c0-.4.14-.73.42-1.01.28-.28.61-.41,1.01-.41h.55v-21.38h-.55c-.4,0-.73-.14-1.01-.41-.28-.28-.42-.61-.42-1.01v-1.98c0-.4.14-.73.42-1.01.28-.28.61-.41,1.01-.41h7.11M115.13,11.7c-1.29,0-2.49.3-3.53.89v-.18h-9.11c-.93,0-1.77.35-2.42,1-.65.65-1,1.49-1,2.42v1.98c0,.93.35,1.77,1,2.42.29.29.62.52.98.69v18.01c-.36.17-.68.4-.98.69-.65.65-1,1.49-1,2.42v1.98c0,.93.35,1.77,1,2.42.65.65,1.49,1,2.42,1h8.06c.93,0,1.77-.35,2.42-1,.66-.66,1-1.49,1-2.42v-1.98c0-.39-.06-.76-.18-1.1.42.07.85.1,1.3.1,1.96,0,3.62-.5,4.95-1.48,1.23-.91,2.22-2.12,2.94-3.59.67-1.37,1.13-2.93,1.39-4.66.24-1.62.36-3.31.36-5.03s-.12-3.33-.36-4.94c-.25-1.72-.72-3.27-1.39-4.63-.72-1.46-1.71-2.66-2.95-3.56-1.32-.96-2.97-1.45-4.89-1.45h0ZM111.59,21.75l1.02-.89s.07-.06.18-.06c.25,0,.33.05.33.05.07.06.22.23.36.66.17.52.29,1.17.36,1.95.07.88.11,1.86.11,2.93s-.04,1.96-.11,2.81c-.07.75-.19,1.41-.36,1.94-.15.45-.3.66-.41.76,0,0,0,0,0,0,0,0-.08.03-.27.03-.02,0-.04,0-.05,0-.04-.02-.09-.05-.13-.09l-1.02-.89v-9.2h0Z" fill="#fff"/>
          </g>
          <g>
            <path d="M132.85,39.99c-1.67-.17-3.14-.64-4.35-1.39-1.22-.75-2.23-1.77-3-3.02-.74-1.21-1.29-2.63-1.65-4.22-.34-1.55-.52-3.26-.52-5.1s.21-3.52.63-5.06c.42-1.56,1.04-2.95,1.84-4.13.81-1.21,1.83-2.19,3.01-2.92,1.19-.73,2.54-1.19,4.03-1.37l.82-.1h0s.3-.04.3-.04v.05l.75.04c1.69.09,3.17.52,4.39,1.28,1.21.75,2.22,1.78,2.99,3.06.75,1.24,1.31,2.71,1.67,4.39.34,1.63.52,3.44.52,5.36,0,.37,0,.67-.02.91-.02.25-.04.49-.07.72l-.11.88h-11.61v-6.23h3.22c0-.11,0-.22-.01-.34-.02-.49-.09-.98-.21-1.47-.11-.45-.27-.85-.49-1.21-.15-.24-.35-.4-.62-.48l-.54-.17-.43.2c-.31.15-.54.37-.72.69-.23.42-.4.87-.51,1.34-.12.51-.19.99-.21,1.43-.02.48-.04.81-.04,1.01v4.23c0,.53.02,1.08.06,1.63.04.51.12.99.24,1.44.12.41.29.79.51,1.13.17.25.37.43.63.53l.53.22.65-.09c.37-.05.65-.16.82-.32.21-.19.35-.39.43-.61.48-1.09,1.35-1.65,2.48-1.65h3.2c.85,0,1.54.42,1.94,1.19.35.68.4,1.41.15,2.12-.34,1.06-.84,2.01-1.47,2.79-.62.77-1.34,1.41-2.14,1.89-.78.47-1.63.83-2.54,1.06-.88.23-1.79.36-2.71.39l-.73.02v.05l-1.1-.11Z" fill="#f33"/>
            <path d="M134.65,13.74c1.53.08,2.83.45,3.91,1.13,1.08.67,1.97,1.58,2.67,2.73.7,1.15,1.21,2.5,1.54,4.07.33,1.57.49,3.29.49,5.16,0,.34,0,.63-.02.85-.01.22-.03.44-.06.65h-9.72v-4.23h3.24c0-.37-.01-.83-.04-1.38-.03-.55-.11-1.11-.24-1.66-.13-.55-.34-1.05-.61-1.5-.28-.45-.67-.75-1.17-.91v-4.9M132.95,13.78v4.94c-.5.24-.89.61-1.17,1.11-.28.5-.48,1.03-.61,1.6-.13.57-.21,1.1-.24,1.6-.03.5-.04.86-.04,1.07v4.23c0,.55.02,1.12.06,1.7.04.58.13,1.13.28,1.64.14.51.36.98.63,1.4.28.42.64.73,1.09.91v5.02c-1.53-.16-2.84-.57-3.93-1.25-1.09-.67-1.98-1.57-2.67-2.69-.69-1.12-1.19-2.42-1.52-3.91-.33-1.49-.49-3.12-.49-4.88s.2-3.34.59-4.8c.4-1.46.96-2.74,1.7-3.83.74-1.09,1.64-1.97,2.71-2.63,1.07-.66,2.27-1.07,3.62-1.23M141.45,31.6c.47,0,.82.22,1.05.65.22.43.26.88.1,1.32-.32.98-.75,1.81-1.3,2.49-.55.69-1.18,1.24-1.88,1.66-.7.42-1.46.74-2.27.95-.82.21-1.65.33-2.49.36v-4.86c.58-.08,1.03-.27,1.36-.57.33-.3.56-.64.69-1.01.29-.66.8-.99,1.54-.99h3.2M134.95,11.53l-1.31.15-.99-.05v.17c-1.6.2-3.07.7-4.37,1.5-1.31.81-2.42,1.89-3.32,3.21-.86,1.27-1.52,2.76-1.97,4.43-.44,1.63-.66,3.42-.66,5.32s.18,3.69.54,5.31c.38,1.7.97,3.22,1.77,4.52.85,1.39,1.97,2.51,3.33,3.35,1.32.81,2.9,1.32,4.68,1.52v.12l.92-.03,1.38.14v-.19c.91-.04,1.81-.18,2.69-.41,1-.26,1.95-.65,2.81-1.17.89-.54,1.7-1.25,2.4-2.12.7-.87,1.25-1.91,1.64-3.11.33-.96.26-1.96-.22-2.88-.21-.41-.48-.75-.8-1.02h1.48l.22-1.76c.03-.25.05-.51.07-.78.02-.26.02-.58.02-.97,0-2-.18-3.87-.54-5.57-.38-1.78-.98-3.37-1.79-4.7-.86-1.41-1.98-2.55-3.32-3.39-1.32-.82-2.89-1.29-4.67-1.41v-.22h0ZM133,30.32h3.01c-.48.36-.86.86-1.13,1.46l-.03.07-.02.07c-.03.07-.1.15-.16.21,0,0,0,0,0,0,0,0-.09.04-.28.07l-.38.05-.29-.12c-.05-.02-.1-.05-.17-.16-.16-.25-.29-.53-.38-.85-.07-.25-.13-.52-.16-.8h0Z" fill="#fff"/>
          </g>
        </g>
        <g>
          <g>
            <path d="M149.44,41.38c-.66,0-1.25-.25-1.71-.71-.46-.46-.71-1.06-.71-1.71v-2.25c0-.66.25-1.25.71-1.72.44-.44,1-.68,1.62-.71V15.05c-.62-.02-1.18-.26-1.62-.71-.46-.46-.71-1.06-.71-1.71v-2.29c0-.63.24-1.21.71-1.68.46-.46,1.06-.71,1.71-.71h12.02c2.13,0,4.02.42,5.63,1.24,1.61.82,2.98,2,4.06,3.51,1.06,1.48,1.85,3.27,2.37,5.34.51,2.02.76,4.29.76,6.73,0,5.4-1.16,9.55-3.45,12.34-2.34,2.84-5.76,4.28-10.16,4.28h-11.23ZM158.96,34.28c.4,0,.85-.02,1.35-.06.43-.03.88-.13,1.33-.3.42-.16.85-.42,1.27-.78.41-.36.78-.89,1.12-1.59.36-.75.65-1.72.87-2.9.22-1.2.34-2.72.34-4.52,0-1.54-.11-2.92-.32-4.11-.2-1.12-.54-2.06-1.02-2.79-.46-.71-1.05-1.23-1.8-1.6-.77-.38-1.75-.57-2.94-.57h-1.06v19.23h.86Z" fill="#39c"/>
            <path d="M161.45,8.96c1.98,0,3.7.38,5.18,1.13,1.48.75,2.71,1.82,3.7,3.2.99,1.38,1.73,3.05,2.21,5,.49,1.95.73,4.11.73,6.48,0,5.19-1.07,9.09-3.22,11.7-2.15,2.61-5.28,3.91-9.39,3.91h-1.86v-5.1h.16c.42,0,.9-.02,1.42-.06.53-.04,1.06-.16,1.6-.36.54-.2,1.07-.52,1.58-.97.51-.45.97-1.09,1.36-1.92.4-.83.71-1.88.95-3.14.24-1.26.36-2.83.36-4.7,0-1.61-.11-3.04-.34-4.29-.22-1.25-.61-2.31-1.17-3.16-.55-.86-1.28-1.51-2.19-1.96-.91-.45-2.04-.67-3.38-.67h-.36v-5.1h2.65M157.11,8.96v31.42h-7.67c-.4,0-.73-.14-1.01-.42-.28-.28-.42-.61-.42-1.01v-2.25c0-.4.14-.73.42-1.01.28-.28.61-.42,1.01-.42h.91V14.06h-.91c-.4,0-.73-.14-1.01-.41-.28-.28-.42-.61-.42-1.01v-2.29c0-.37.14-.69.42-.97.28-.28.61-.42,1.01-.42h7.67M161.45,6.96h-12.02c-.93,0-1.77.35-2.42,1-.65.65-1,1.48-1,2.38v2.29c0,.93.35,1.77,1,2.42.39.39.84.67,1.33.83v17.57c-.5.16-.95.44-1.33.83-.65.65-1,1.49-1,2.42v2.25c0,.93.35,1.77,1,2.42.65.65,1.49,1,2.42,1h11.23c4.72,0,8.4-1.56,10.93-4.64,2.44-2.96,3.68-7.33,3.68-12.97,0-2.52-.27-4.87-.79-6.97-.55-2.19-1.4-4.1-2.53-5.68-1.17-1.64-2.66-2.93-4.42-3.82-1.75-.89-3.8-1.34-6.09-1.34h0ZM159.11,16.06h.06c1.03,0,1.87.16,2.5.47.58.29,1.04.7,1.4,1.25.41.63.7,1.45.88,2.43.2,1.13.3,2.46.3,3.94,0,1.74-.11,3.2-.32,4.34-.2,1.09-.47,1.98-.79,2.65-.27.57-.57,1.01-.87,1.27-.33.28-.65.49-.96.6-.36.13-.72.21-1.06.24-.42.03-.79.05-1.13.05v-17.22h0Z" fill="#fff"/>
          </g>
          <g>
            <path d="M176.75,41.38c-.66,0-1.25-.25-1.71-.71-.46-.46-.71-1.05-.71-1.71v-1.98c0-.66.25-1.25.71-1.72.35-.36.79-.58,1.27-.67v-12.35c-.48-.09-.91-.31-1.27-.67-.46-.46-.71-1.06-.71-1.72v-1.98c0-.66.25-1.25.71-1.72.46-.46,1.05-.71,1.71-.71h8.11v.95c.89-1.09,2.1-1.66,3.51-1.66.59,0,1.07.05,1.45.15.55.14.96.55,1.1,1.12.07.29.11.58.11.88v5.81c0,.5-.23.94-.63,1.25-.28.21-.61.32-.93.32-.16,0-.31-.03-.46-.08-.15-.04-.38-.07-.63-.07-.82,0-1.47.32-2.04.99l-1.46,1.71v7.71h.03c.66,0,1.25.24,1.71.71.46.46.71,1.06.71,1.72v1.98c0,.66-.25,1.25-.71,1.71-.46.46-1.06.71-1.71.71h-8.14Z" fill="#39c"/>
            <path d="M188.37,15.75c.5,0,.9.04,1.19.12.21.05.34.18.4.4.05.21.08.42.08.63v5.81c0,.18-.08.34-.24.45-.11.08-.22.12-.33.12-.05,0-.1,0-.15-.02-.29-.08-.61-.12-.95-.12-1.11,0-2.04.45-2.81,1.34v-7.35c.71-.92,1.65-1.38,2.81-1.38M183.87,16.47v19.09h1.03c.4,0,.73.14,1.01.41.28.28.42.61.42,1.01v1.98c0,.4-.14.73-.42,1.01-.28.28-.61.42-1.01.42h-8.14c-.4,0-.73-.14-1.01-.42-.28-.28-.42-.61-.42-1.01v-1.98c0-.4.14-.73.42-1.01.28-.28.61-.41,1.01-.41h.55v-14.27h-.55c-.4,0-.73-.14-1.01-.41-.28-.28-.42-.61-.42-1.01v-1.98c0-.4.14-.73.42-1.01.28-.28.61-.41,1.01-.41h7.11M188.37,13.75c-1.01,0-1.94.24-2.75.71h-8.87c-.93,0-1.77.35-2.42,1-.65.65-1,1.49-1,2.42v1.98c0,.93.35,1.77,1,2.42.29.29.62.52.98.69v10.9c-.36.17-.68.4-.98.69-.65.65-1,1.49-1,2.42v1.98c0,.93.35,1.77,1,2.42.65.65,1.49,1,2.42,1h8.14c.93,0,1.77-.35,2.42-1,.65-.65,1-1.49,1-2.42v-1.98c0-.93-.35-1.77-1-2.42-.42-.42-.91-.71-1.45-.87v-6.47l1.22-1.43c.38-.45.77-.64,1.28-.64.15,0,.29.01.4.04.23.07.46.1.69.1.54,0,1.07-.18,1.53-.52.66-.49,1.04-1.24,1.04-2.05v-5.81c0-.37-.05-.75-.14-1.11-.23-.93-.92-1.62-1.85-1.85-.43-.12-.99-.18-1.68-.18h0Z" fill="#fff"/>
          </g>
          <g>
            <path d="M199.26,42.05c-1.67-.17-3.14-.64-4.35-1.39-1.23-.75-2.23-1.77-3-3.02-.74-1.21-1.29-2.63-1.65-4.22-.34-1.55-.52-3.27-.52-5.1s.21-3.52.63-5.06c.42-1.56,1.04-2.95,1.84-4.13.81-1.21,1.83-2.19,3.01-2.92,1.19-.73,2.54-1.19,4.03-1.37l.82-.1h0s.3-.04.3-.04v.05l.75.04c1.69.09,3.17.52,4.39,1.28,1.21.75,2.22,1.78,2.99,3.06.75,1.24,1.31,2.71,1.67,4.39.34,1.63.52,3.44.52,5.36,0,.37,0,.67-.02.91-.01.25-.04.49-.07.72l-.11.88h-11.61v-6.23h3.22c0-.11,0-.22-.01-.34-.02-.49-.09-.98-.21-1.47-.11-.45-.27-.85-.49-1.21-.15-.24-.35-.4-.62-.48l-.54-.17-.43.2c-.31.15-.54.37-.72.69-.23.42-.4.87-.51,1.34-.12.51-.19.99-.21,1.43-.03.48-.04.82-.04,1.02v4.23c0,.53.02,1.08.06,1.63.03.51.12.99.24,1.44.12.41.29.79.51,1.13.16.25.37.42.63.53l.53.22.65-.09c.37-.05.65-.16.82-.32.21-.19.35-.39.43-.61.48-1.09,1.35-1.65,2.48-1.65h3.2c.85,0,1.54.42,1.94,1.19.35.68.4,1.41.15,2.12-.35,1.06-.84,2.01-1.47,2.79-.62.77-1.34,1.41-2.14,1.89-.78.47-1.63.83-2.54,1.06-.88.23-1.79.36-2.71.39l-.73.02v.05l-1.1-.11Z" fill="#39c"/>
            <path d="M201.06,15.79c1.53.08,2.83.45,3.91,1.13,1.08.67,1.97,1.58,2.67,2.73.7,1.15,1.21,2.5,1.54,4.07.33,1.57.49,3.29.49,5.16,0,.34,0,.63-.02.85-.01.22-.03.44-.06.65h-9.72v-4.23h3.24c0-.37-.01-.83-.04-1.38-.03-.55-.11-1.11-.24-1.66-.13-.55-.34-1.05-.61-1.5-.28-.45-.67-.75-1.17-.91v-4.9M199.36,15.83v4.94c-.5.24-.89.61-1.17,1.11-.28.5-.48,1.03-.61,1.6-.13.57-.21,1.1-.24,1.6-.03.5-.04.86-.04,1.07v4.23c0,.55.02,1.12.06,1.7.04.58.13,1.13.28,1.64.14.51.36.98.63,1.4.28.42.64.73,1.09.91v5.02c-1.53-.16-2.84-.57-3.93-1.25-1.09-.67-1.98-1.57-2.67-2.69-.69-1.12-1.19-2.42-1.52-3.91-.33-1.49-.49-3.12-.49-4.88s.2-3.34.59-4.8c.4-1.46.96-2.74,1.7-3.83.74-1.09,1.64-1.97,2.71-2.63,1.07-.66,2.27-1.07,3.62-1.23M207.86,33.66c.47,0,.82.22,1.05.65.22.43.26.88.1,1.32-.32.98-.75,1.81-1.3,2.49-.55.69-1.18,1.24-1.88,1.66-.7.42-1.46.74-2.27.95-.82.21-1.65.33-2.49.36v-4.86c.58-.08,1.03-.27,1.36-.57.33-.3.56-.64.69-1.01.29-.66.8-.99,1.54-.99h3.2M201.36,13.58l-1.31.15-.99-.05v.17c-1.6.2-3.07.7-4.37,1.5-1.31.81-2.42,1.89-3.32,3.21-.86,1.27-1.52,2.76-1.97,4.43-.44,1.63-.66,3.42-.66,5.32s.18,3.69.54,5.31c.38,1.7.97,3.22,1.77,4.52.85,1.38,1.97,2.51,3.33,3.35,1.32.81,2.9,1.32,4.68,1.52v.12l.92-.03,1.38.14v-.19c.91-.04,1.81-.18,2.69-.41,1-.26,1.95-.65,2.81-1.17.89-.54,1.7-1.25,2.4-2.12.7-.87,1.25-1.91,1.64-3.11.33-.96.26-1.96-.22-2.88-.21-.41-.48-.75-.8-1.02h1.48l.22-1.76c.03-.25.05-.51.07-.78.02-.26.02-.58.02-.97,0-2-.18-3.87-.54-5.57-.38-1.78-.98-3.37-1.79-4.7-.86-1.41-1.98-2.55-3.32-3.39-1.32-.82-2.89-1.29-4.67-1.41v-.22h0ZM199.4,32.38h3.01c-.48.36-.86.86-1.13,1.46l-.03.06-.02.07c-.03.07-.1.15-.16.21,0,0,0,0,0,0,0,0-.09.04-.28.07l-.38.05-.29-.12c-.05-.02-.1-.05-.17-.16-.16-.25-.29-.53-.38-.85-.07-.25-.13-.52-.16-.8h0Z" fill="#fff"/>
          </g>
          <g>
            <path d="M216.91,42.13c-1.57,0-2.86-.34-3.86-1-.95-.64-1.7-1.41-2.22-2.3-.51-.86-.85-1.76-1.01-2.66-.16-.85-.23-1.52-.23-2.04,0-1.86.3-3.42.89-4.64.59-1.23,1.38-2.22,2.33-2.95.77-.59,1.62-1.03,2.56-1.33h-2.41c-.87,0-1.57-.41-1.97-1.16-.33-.63-.43-1.32-.27-2.06.23-1.22.6-2.29,1.1-3.17.51-.91,1.16-1.66,1.92-2.24.75-.57,1.61-1,2.55-1.29.9-.27,1.88-.44,2.9-.5l1.06-.06v.05l.76.05c1.84.12,3.36.53,4.53,1.23,1.16.7,2.07,1.58,2.71,2.63.62,1.02,1.03,2.15,1.22,3.37.18,1.14.27,2.28.27,3.38v9.26c.37.11.71.32.99.6.46.46.71,1.06.71,1.71v1.98c0,.63-.21,1.2-.6,1.66-.3.35-.85.76-1.79.76h-2.49c-1.28,0-2.37-.45-3.24-1.35-.46-.46-.79-.99-1.01-1.56v1.55l-.28.29c-.68.71-1.45,1.19-2.31,1.44-.78.23-1.7.34-2.81.34ZM221.02,30.59c-.47,0-.94.05-1.38.15-.38.09-.71.23-1,.44-.27.2-.49.47-.67.83s-.27.84-.27,1.45.12,1.11.37,1.49c.12.19.3.36.77.36.35,0,.65-.07.9-.22.28-.16.52-.39.73-.69l1.52-2.21v-1.6h-.98ZM220.35,24.64c.34,0,.69.01,1.03.04l.61.05c-.01-.3-.04-.61-.08-.93-.06-.47-.15-.91-.29-1.3-.12-.36-.29-.68-.49-.95-.15-.21-.33-.35-.56-.44l-.53-.21-.41.17c-.22.09-.37.23-.47.44-.17.36-.32.81-.44,1.34-.06.54-.28,1.09-.62,1.53-.09.12-.21.24-.35.35.54-.06,1.08-.09,1.61-.09h.99Z" fill="#39c"/>
            <path d="M219.24,15.79v4.35c-.45.18-.78.49-.99.93-.21.43-.38.96-.51,1.56-.05.45-.2.82-.43,1.13-.24.3-.58.45-1.03.45h-3.32c-.5,0-.86-.21-1.09-.63-.22-.42-.28-.88-.18-1.38.21-1.13.54-2.09.99-2.89.45-.79,1-1.44,1.66-1.94.66-.5,1.4-.88,2.23-1.13.83-.25,1.72-.4,2.67-.45M220.94,15.83c1.69.11,3.04.47,4.07,1.09,1.03.62,1.82,1.38,2.37,2.29.55.91.92,1.91,1.09,3,.17,1.09.26,2.17.26,3.22v10.16h.28c.4,0,.73.14,1.01.41.28.28.42.61.42,1.01v1.98c0,.4-.12.73-.36,1.01-.24.28-.58.41-1.03.41h-2.49c-1,0-1.84-.35-2.53-1.05-.69-.7-1.03-1.55-1.03-2.55v-11.58c0-.5-.03-1.02-.1-1.56-.07-.54-.18-1.04-.34-1.5-.16-.46-.37-.87-.63-1.23-.26-.36-.59-.61-.99-.77v-4.35M220.35,25.64c.32,0,.63.01.95.04v3.91h-.28c-.55,0-1.09.06-1.6.18-.51.12-.97.32-1.36.61-.4.29-.72.69-.97,1.19-.25.5-.38,1.13-.38,1.9,0,.82.18,1.5.53,2.04.36.54.89.81,1.6.81.53,0,.99-.12,1.4-.36.41-.24.76-.57,1.05-.99v4.7c-.55.58-1.17.97-1.86,1.17-.69.2-1.53.3-2.53.3-1.37,0-2.47-.28-3.3-.83-.83-.55-1.47-1.21-1.92-1.98-.45-.76-.74-1.54-.89-2.33-.15-.79-.22-1.41-.22-1.86,0-1.71.26-3.12.79-4.21.53-1.09,1.21-1.96,2.04-2.59s1.77-1.07,2.81-1.32c1.04-.25,2.09-.38,3.14-.38h.99M221.24,13.68l-1.43.08-.87-.05v.1c-1.03.07-2.02.25-2.94.52-1.06.32-2.02.81-2.87,1.45-.87.66-1.61,1.52-2.19,2.54-.55.98-.96,2.16-1.21,3.51-.19.91-.06,1.86.38,2.69.39.73,1,1.25,1.74,1.51-.92.79-1.68,1.8-2.27,3.02-.66,1.36-.99,3.07-.99,5.08,0,.58.08,1.3.25,2.22.19,1.02.57,2.02,1.13,2.98.6,1.02,1.45,1.91,2.53,2.63,1.16.77,2.64,1.17,4.41,1.17,1.2,0,2.21-.12,3.08-.37,1.03-.3,1.95-.87,2.75-1.71l.07-.07c1.02.94,2.31,1.44,3.74,1.44h2.49c1.03,0,1.93-.4,2.55-1.11.55-.64.84-1.44.84-2.31v-1.98c0-.93-.35-1.77-1-2.42-.21-.21-.45-.4-.7-.54v-8.62c0-1.15-.09-2.34-.28-3.53-.21-1.35-.67-2.61-1.35-3.74-.72-1.18-1.75-2.18-3.05-2.97-1.26-.76-2.88-1.22-4.8-1.36v-.17h0ZM220.04,21.98h0s.16.06.16.06c.03.01.07.03.12.1.14.19.26.42.35.68.09.25.15.52.2.82-.18,0-.35-.01-.52-.01h-.78c.06-.21.11-.43.14-.66.09-.4.2-.73.33-1h0ZM218.86,34.31c-.13-.25-.15-.59-.15-.85,0-.59.1-.88.16-1,.11-.22.23-.37.36-.47.17-.13.38-.22.63-.28.36-.08.74-.13,1.13-.13v.29l-1.35,1.96c-.12.18-.25.31-.4.39-.06.04-.17.08-.38.09h0Z" fill="#fff"/>
          </g>
          <g>
            <path d="M256.83,41.38c-.66,0-1.25-.24-1.71-.71-.25-.25-.44-.54-.56-.86-.12.32-.31.61-.56.86-.46.46-1.06.71-1.71.71h-7.04c-.66,0-1.25-.25-1.71-.71-.21-.21-.38-.45-.5-.72-.12.26-.29.5-.5.72-.46.46-1.05.71-1.71.71h-7.39c-.66,0-1.25-.25-1.71-.71s-.71-1.06-.71-1.71v-1.98c0-.66.25-1.25.71-1.71.36-.36.79-.58,1.27-.67v-12.35c-.48-.09-.91-.31-1.27-.67-.46-.46-.71-1.06-.71-1.72v-1.98c0-.66.25-1.25.71-1.71.46-.46,1.06-.71,1.71-.71h8.12v1.15c.6-.68,1.32-1.16,2.12-1.45.78-.27,1.65-.41,2.61-.41.71,0,1.45.1,2.19.29.76.2,1.47.51,2.11.92.65.42,1.22.95,1.67,1.58.24.33.44.69.58,1.08v-2.12l.33-.3c.65-.58,1.4-.98,2.21-1.18.73-.18,1.56-.27,2.45-.27.74,0,1.51.1,2.28.31.83.22,1.59.63,2.27,1.22.68.59,1.24,1.38,1.67,2.35.43.98.64,2.19.64,3.68v12.31c.43.1.82.32,1.15.64.46.46.71,1.06.71,1.71v1.98c0,.66-.25,1.25-.71,1.71s-1.06.71-1.71.71h-7.27ZM253.13,34.7c.32.12.62.31.87.56s.44.54.56.86c.12-.31.3-.6.54-.85.29-.3.63-.5,1.01-.62v-9.69c0-.45-.02-.9-.07-1.33-.04-.35-.12-.65-.24-.91-.09-.2-.22-.35-.38-.46-.16-.11-.4-.13-.58-.13-.21,0-.39.04-.56.13l-1.15.58v11.86ZM241.55,34.66c.37.11.71.32.99.6.21.21.38.45.5.72.12-.26.29-.5.5-.72.3-.3.65-.5,1.03-.61v-9.69c0-.46-.02-.91-.07-1.33-.04-.35-.12-.65-.24-.91-.1-.2-.22-.35-.38-.46-.13-.09-.33-.13-.59-.13-.21,0-.4.04-.58.13l-1.15.57v11.83Z" fill="#39c"/>
            <path d="M257.82,15.75c.66,0,1.33.09,2.02.28.68.18,1.31.52,1.88,1.01.57.49,1.03,1.15,1.4,2,.37.84.55,1.94.55,3.28v13.24h.43c.4,0,.73.14,1.01.41.28.28.41.61.41,1.01v1.98c0,.4-.14.73-.41,1.01-.28.28-.61.42-1.01.42h-7.27c-.4,0-.73-.14-1.01-.42-.28-.28-.41-.61-.41-1.01v-1.98c0-.4.13-.73.4-1.01.27-.28.6-.41.99-.41h.31v-10.59c0-.5-.03-.98-.08-1.44-.05-.46-.16-.87-.33-1.23-.17-.36-.4-.64-.7-.85-.3-.21-.68-.32-1.15-.32-.36,0-.7.08-1.02.24v-4.43c.53-.47,1.12-.79,1.78-.95.66-.16,1.4-.24,2.21-.24M246.28,15.75c.63,0,1.28.09,1.94.26.66.17,1.26.43,1.82.79.55.36,1.02.8,1.4,1.32.38.53.61,1.13.69,1.82v15.61h.16c.4,0,.73.14,1.01.41.28.28.41.61.41,1.01v1.98c0,.4-.14.73-.41,1.01-.28.28-.61.42-1.01.42h-7.04c-.4,0-.73-.14-1.01-.42-.28-.28-.42-.61-.42-1.01v-1.98c0-.4.14-.73.42-1.01.28-.28.61-.41,1.01-.41h.32v-10.59c0-.5-.03-.98-.08-1.44-.05-.46-.16-.87-.34-1.23-.17-.36-.41-.64-.71-.85-.3-.21-.69-.32-1.17-.32-.37,0-.71.08-1.03.24v-4.03c.5-.58,1.09-.99,1.76-1.23.67-.24,1.43-.36,2.27-.36M240.55,16.47v19.09h.28c.4,0,.73.14,1.01.41.28.28.42.61.42,1.01v1.98c0,.4-.14.73-.42,1.01-.28.28-.61.42-1.01.42h-7.39c-.4,0-.73-.14-1.01-.42-.28-.28-.41-.61-.41-1.01v-1.98c0-.4.14-.73.41-1.01.28-.28.61-.41,1.01-.41h.55v-14.27h-.55c-.4,0-.73-.14-1.01-.41-.28-.28-.41-.61-.41-1.01v-1.98c0-.4.14-.73.41-1.01.28-.28.61-.41,1.01-.41h7.11M257.82,13.75c-.97,0-1.87.1-2.68.29-.98.24-1.88.71-2.65,1.41l-.43.39c-.29-.26-.61-.51-.94-.72-.73-.47-1.53-.82-2.39-1.04-.82-.21-1.64-.32-2.44-.32-1.07,0-2.06.16-2.94.47-.27.1-.54.21-.79.35v-.1h-9.11c-.93,0-1.77.35-2.42,1-.65.65-1,1.49-1,2.42v1.98c0,.93.35,1.77,1,2.42.29.29.62.52.98.69v10.9c-.36.17-.68.4-.98.69-.66.66-1,1.49-1,2.42v1.98c0,.93.35,1.77,1,2.42.65.65,1.49,1,2.42,1h7.39c.83,0,1.59-.28,2.21-.81.62.53,1.38.81,2.21.81h7.04c.86,0,1.64-.3,2.27-.86.63.56,1.41.86,2.27.86h7.27c.93,0,1.77-.35,2.42-1,.65-.65,1-1.49,1-2.42v-1.98c0-.93-.35-1.77-1-2.42-.26-.26-.55-.47-.86-.63v-11.61c0-1.64-.24-2.97-.72-4.08-.49-1.12-1.14-2.03-1.93-2.71-.79-.68-1.69-1.16-2.66-1.42-.85-.23-1.71-.35-2.54-.35h0ZM254.13,23.46l.6-.31s.05-.02.11-.02c.01,0,.03,0,.04,0,0,0,0,.02.01.02.07.15.12.35.15.59.04.39.07.8.07,1.22v9.04c-.2.11-.38.25-.56.41-.14-.12-.28-.23-.42-.32v-10.63h0ZM242.55,23.45l.59-.3s.06-.03.13-.03c.02,0,.04,0,.06,0,0,0,.01.02.02.03.07.15.12.35.15.58.04.39.07.79.07,1.21v9.03c-.19.11-.36.23-.53.37-.16-.13-.32-.25-.49-.35v-10.56h0Z" fill="#fff"/>
          </g>
        </g>
        <g id="d" data-name="banner">
          <g>
            <rect x="9.37" y=".78" width="262.35" height="48.91" fill="none"/>
            <g>
              <circle cx="33.84" cy="25.26" r="20.03" fill="#fff"/>
              <path d="M40.52,31.94c0,3.69-2.99,6.67-6.67,6.67s-6.67-2.99-6.67-6.67,3.34-8.34,6.67-20.03c3.34,11.68,6.67,16.34,6.67,20.03Z" fill="#4545ff"/>
            </g>
          </g>
        </g>
      </g>
      <rect width="300" height="50" fill="#fff" opacity="0"/>
    </g>
  </g>
</svg>