<?xml version="1.0" encoding="UTF-8"?>
<svg class="card-image" xmlns="http://www.w3.org/2000/svg" viewBox="0 0 216.5 216.5">
    <path d="M216.5,130.5h-58.76c-14.55,0-28.23-5.67-38.52-15.96l-17.27-17.27c-10.29-10.29-15.96-23.97-15.96-38.52V0h45v58.76c0,2.49,1.01,4.94,2.77,6.7l17.27,17.27c1.79,1.79,4.17,2.78,6.7,2.78h58.76v45Z" />
    <path id="handle2" d="M44.18,155.62c1-1,2.15-1.77,3.36-2.34L6.56,112.29c-.32-.32-.85-.32-1.17,0l-2.5,2.5c-3.18,3.18-3.18,8.35,0,11.53l24.09,24.09c.74.74,1.73,1.2,2.78,1.28l3.14.24c1.05.08,2.03.53,2.78,1.28l6.03,6.03c.57-1.32,1.39-2.55,2.47-3.63Z" />
    <path id="handle1" d="M104.21,209.94l-40.99-40.99c-.57,1.22-1.34,2.36-2.34,3.36-1.08,1.08-2.31,1.89-3.63,2.47l6.03,6.03c.74.74,1.2,1.73,1.28,2.78l.24,3.14c.08,1.05.53,2.03,1.28,2.78l24.09,24.09c3.18,3.18,8.35,3.18,11.53,0l2.5-2.5c.32-.32.32-.85,0-1.17Z"/>
</svg>