<?xml version="1.0" encoding="UTF-8"?><svg id="Layer_2" xmlns="http://www.w3.org/2000/svg" xmlns:xlink="http://www.w3.org/1999/xlink" viewBox="0 0 216.5 216.5"><defs><linearGradient id="linear-gradient" x1="81" y1="18.5" x2="135" y2="18.5" gradientUnits="userSpaceOnUse"><stop offset="0" stop-color="#666"/><stop offset="0" stop-color="#6a6a6a"/><stop offset=".08" stop-color="#909090"/><stop offset=".16" stop-color="#afafaf"/><stop offset=".24" stop-color="#c7c7c7"/><stop offset=".32" stop-color="#d8d8d8"/><stop offset=".41" stop-color="#e2e2e2"/><stop offset=".52" stop-color="#e6e6e6"/><stop offset=".58" stop-color="#dadada"/><stop offset=".69" stop-color="#bcbcbc"/><stop offset=".84" stop-color="#8b8b8b"/><stop offset="1" stop-color="#4d4d4d"/></linearGradient><linearGradient id="linear-gradient-2" x1="9" y1="122" x2="207" y2="122" xlink:href="#linear-gradient"/><linearGradient id="linear-gradient-3" x1="72" y1="9.5" x2="144" y2="9.5" xlink:href="#linear-gradient"/></defs><g id="Layer_1-2"><rect width="216.5" height="216.5" style="fill:none;"/><rect x="81" y=".5" width="54" height="36" style="fill:#f7931e;"/><rect x="81" y=".5" width="54" height="36" style="fill:url(#linear-gradient); opacity:.5;"/><path d="M180.44,45.5h-23.79c-6.98,0-12.65-5.66-12.65-12.65v-.85c0-2.49-2.01-4.5-4.5-4.5h-63c-2.49,0-4.5,2.01-4.5,4.5v.85c0,6.98-5.66,12.65-12.65,12.65h-23.79c-14.67,0-26.56,11.89-26.56,26.56v144.44h198V72.06c0-14.67-11.89-26.56-26.56-26.56Z" style="fill:aqua; opacity:.24;"/><path d="M180.44,45.5h-23.79c-6.98,0-12.65-5.66-12.65-12.65v-.85c0-2.49-2.01-4.5-4.5-4.5h-63c-2.49,0-4.5,2.01-4.5,4.5v.85c0,6.98-5.66,12.65-12.65,12.65h-23.79c-14.67,0-26.56,11.89-26.56,26.56v144.44h198V72.06c0-14.67-11.89-26.56-26.56-26.56Z" style="fill:url(#linear-gradient-2); opacity:.56;"/><rect x="72" y=".5" width="72" height="18" style="fill:#f7931e;"/><rect x="72" y=".5" width="72" height="18" style="fill:url(#linear-gradient-3); opacity:.67;"/></g></svg>