<?xml version="1.0" encoding="UTF-8"?><svg id="Layer_2" xmlns="http://www.w3.org/2000/svg" xmlns:xlink="http://www.w3.org/1999/xlink" viewBox="0 0 216.5 216.5"><defs><linearGradient id="linear-gradient" x1="-138.81" y1="324.31" x2="-76.81" y2="324.31" gradientTransform="translate(-216.12 .5) rotate(-90)" gradientUnits="userSpaceOnUse"><stop offset="0" stop-color="#666"/><stop offset="0" stop-color="#6a6a6a"/><stop offset=".08" stop-color="#909090"/><stop offset=".16" stop-color="#afafaf"/><stop offset=".24" stop-color="#c7c7c7"/><stop offset=".32" stop-color="#d8d8d8"/><stop offset=".41" stop-color="#e2e2e2"/><stop offset=".52" stop-color="#e6e6e6"/><stop offset=".58" stop-color="#dadada"/><stop offset=".69" stop-color="#bcbcbc"/><stop offset=".84" stop-color="#8b8b8b"/><stop offset="1" stop-color="#4d4d4d"/></linearGradient><linearGradient id="linear-gradient-2" x1="77.25" y1="50.31" x2="139.25" y2="50.31" gradientTransform="matrix(1,0,0,1,0,0)" xlink:href="#linear-gradient"/><linearGradient id="linear-gradient-3" x1="77.25" y1="166.69" x2="139.25" y2="166.69" gradientTransform="translate(216.5 333) rotate(-180)" xlink:href="#linear-gradient"/><linearGradient id="linear-gradient-4" x1="-76.31" y1="153.31" x2="-4.31" y2="153.31" gradientTransform="translate(54 -45)" xlink:href="#linear-gradient"/><linearGradient id="linear-gradient-5" x1="72.19" y1="13.81" x2="144.19" y2="13.81" gradientTransform="matrix(1,0,0,1,0,0)" xlink:href="#linear-gradient"/><linearGradient id="linear-gradient-6" x1="72.19" y1="202.81" x2="144.19" y2="202.81" gradientTransform="matrix(1,0,0,1,0,0)" xlink:href="#linear-gradient"/><linearGradient id="linear-gradient-7" x1="-76.31" y1="342.31" x2="-4.31" y2="342.31" gradientTransform="translate(243 -234)" xlink:href="#linear-gradient"/></defs><g id="Layer_1-2"><rect width="216.5" height="216.5" style="fill:none;"/><rect x=".19" y="77.31" width="216" height="62" style="fill:#f7931e;"/><rect x=".19" y="77.31" width="216" height="62" style="fill:url(#linear-gradient); opacity:.5;"/><path d="M139.25.31h-62v78.34c4.62,12.64,16.76,21.66,31,21.66s26.38-9.02,31-21.66V.31Z" style="fill:#f7931e;"/><path d="M139.25.31h-62v78.34c4.62,12.64,16.76,21.66,31,21.66s26.38-9.02,31-21.66V.31Z" style="fill:url(#linear-gradient-2); opacity:.5;"/><path d="M77.25,216.31h62v-78.34c-4.62-12.64-16.76-21.66-31-21.66s-26.38,9.02-31,21.66v78.34Z" style="fill:#f7931e;"/><path d="M77.25,216.31h62v-78.34c-4.62-12.64-16.76-21.66-31-21.66s-26.38,9.02-31,21.66v78.34Z" style="fill:url(#linear-gradient-3); opacity:.5;"/><rect x="-22.31" y="94.81" width="72" height="27" transform="translate(-94.62 122) rotate(-90)" style="fill:#f7931e;"/><rect x="-22.31" y="94.81" width="72" height="27" transform="translate(-94.62 122) rotate(-90)" style="fill:url(#linear-gradient-4); opacity:.67;"/><rect x="72.19" y=".31" width="72" height="27" style="fill:#f7931e;"/><rect x="72.19" y=".31" width="72" height="27" style="fill:url(#linear-gradient-5); opacity:.67;"/><rect x="72.19" y="189.31" width="72" height="27" style="fill:#f7931e;"/><rect x="72.19" y="189.31" width="72" height="27" style="fill:url(#linear-gradient-6); opacity:.67;"/><rect x="166.69" y="94.81" width="72" height="27" transform="translate(94.38 311) rotate(-90)" style="fill:#f7931e;"/><rect x="166.69" y="94.81" width="72" height="27" transform="translate(94.38 311) rotate(-90)" style="fill:url(#linear-gradient-7); opacity:.67;"/></g></svg>