<?xml version="1.0" encoding="UTF-8"?>
<svg class="card-image" xmlns="http://www.w3.org/2000/svg" viewBox="0 0 216.5 216.5">
    <path d="M85.24,216.5h47.01v-118.58c-3.51-9.58-12.71-16.42-23.51-16.42s-20,6.84-23.51,16.42v118.58Z"/>
    <path d="M120.43,12.31c0,1.42-.26,2.77-.72,4.03h57.96c.46,0,.83-.37.83-.83v-3.54c0-4.5-3.65-8.15-8.15-8.15h-34.07c-1.05,0-2.07.38-2.87,1.06l-2.4,2.05c-.8.68-1.82,1.06-2.87,1.06h-8.53c.53,1.34.82,2.79.82,4.31Z"/>
    <path id="handle1" d="M39.57,16.34h57.96c-.46-1.26-.72-2.61-.72-4.03,0-1.52.3-2.97.82-4.31h-8.53c-1.05,0-2.07-.38-2.87-1.06l-2.4-2.05c-.8-.68-1.82-1.06-2.87-1.06h-34.07c-4.5,0-8.15,3.65-8.15,8.15v3.54c0,.46.37.83.83.83Z"/>
</svg>