<?xml version="1.0" encoding="UTF-8"?>
<svg class="card-image" xmlns="http://www.w3.org/2000/svg" viewBox="0 0 216.5 216.5">
  <path d="M12.36,94.07c1.42,0,2.77.26,4.03.72v-57.96c0-.46-.37-.83-.83-.83h-3.54c-4.5,0-8.15,3.65-8.15,8.15v34.07c0,1.05.38,2.07,1.06,2.87l2.05,2.4c.68.8,1.06,1.82,1.06,2.87v8.53c1.34-.53,2.79-.82,4.31-.82Z"/>
  <path d="M16.39,174.93v-57.96c-1.26.46-2.61.72-4.03.72-1.52,0-2.97-.3-4.31-.82v8.53c0,1.05-.38,2.07-1.06,2.87l-2.05,2.4c-.68.8-1.06,1.82-1.06,2.87v34.07c0,4.5,3.65,8.15,8.15,8.15h3.54c.46,0,.83-.37.83-.83Z"/>
  <rect x="86" width="45" height="216"/>
</svg>